<svg xmlns="http://www.w3.org/2000/svg" xmlns:xlink="http://www.w3.org/1999/xlink" id="svg" version="1.1" viewBox="58.15 139.01 283.7 122.79"><g id="svgg"><path id="path0" d="M186.574 139.140 C 186.218 139.236,185.926 139.468,185.926 139.657 C 185.926 139.846,185.688 140.000,185.397 140.000 C 185.106 140.000,184.647 140.208,184.378 140.463 C 184.109 140.718,183.264 141.215,182.500 141.568 C 181.736 141.921,181.111 142.380,181.111 142.587 C 181.111 142.794,180.800 142.963,180.421 142.963 C 179.223 142.963,177.281 144.944,177.574 145.867 C 177.713 146.307,177.983 146.667,178.173 146.667 C 178.363 146.667,178.519 146.917,178.519 147.222 C 178.519 147.528,178.695 147.778,178.911 147.778 C 179.126 147.778,179.209 147.930,179.093 148.117 C 178.978 148.303,179.310 148.963,179.832 149.582 C 180.353 150.201,180.793 150.841,180.810 151.002 C 180.877 151.644,181.618 152.963,181.911 152.963 C 182.082 152.963,182.187 153.088,182.144 153.241 C 182.100 153.394,182.281 153.909,182.546 154.387 C 182.974 155.160,182.934 155.323,182.187 155.869 C 180.564 157.054,174.815 163.013,174.815 163.510 C 174.815 163.786,174.690 164.068,174.537 164.136 C 173.919 164.410,171.493 169.609,170.935 171.852 C 170.860 172.157,170.772 172.407,170.741 172.407 C 170.123 172.407,169.844 186.588,170.448 187.316 C 170.667 187.580,170.749 187.893,170.629 188.013 C 170.309 188.333,172.008 192.801,172.721 193.514 C 173.058 193.851,173.333 194.448,173.333 194.841 C 173.333 195.234,173.500 195.556,173.704 195.556 C 173.907 195.556,174.037 195.681,173.992 195.833 C 173.918 196.081,174.695 197.419,175.738 198.843 C 176.939 200.482,181.977 205.185,182.532 205.185 C 182.719 205.185,183.085 205.441,183.344 205.754 C 184.387 207.010,190.499 209.625,193.889 210.266 C 196.471 210.754,205.217 210.603,207.037 210.039 C 210.892 208.845,211.749 208.528,213.342 207.711 C 217.512 205.572,221.310 202.358,224.205 198.519 C 225.050 197.398,225.949 196.261,226.204 195.992 C 226.458 195.723,226.667 195.330,226.667 195.120 C 226.667 194.909,227.069 193.935,227.562 192.955 C 228.054 191.975,228.360 191.076,228.241 190.957 C 228.122 190.838,228.212 190.741,228.440 190.741 C 228.830 190.741,229.514 188.339,229.321 187.646 C 229.273 187.472,229.412 187.114,229.631 186.850 C 229.849 186.587,230.002 185.813,229.969 185.130 C 229.937 184.447,230.037 182.764,230.192 181.389 C 230.351 179.968,230.331 178.889,230.144 178.889 C 229.963 178.889,229.873 178.052,229.944 177.029 C 230.015 176.005,229.948 174.880,229.795 174.528 C 229.383 173.579,229.206 172.854,229.209 172.137 C 229.211 171.784,229.056 171.400,228.865 171.282 C 228.675 171.164,228.519 170.771,228.519 170.408 C 228.519 168.316,224.575 162.240,221.044 158.889 C 217.712 155.727,217.506 155.556,217.053 155.556 C 216.840 155.556,216.667 155.389,216.667 155.185 C 216.667 154.981,216.431 154.815,216.142 154.815 C 215.853 154.815,215.559 154.639,215.487 154.424 C 215.416 154.209,215.110 153.991,214.808 153.939 C 214.506 153.887,213.676 153.480,212.963 153.034 C 212.250 152.589,211.458 152.204,211.204 152.177 C 210.735 152.129,210.228 152.019,209.722 151.854 C 209.569 151.805,209.319 151.784,209.167 151.808 C 209.014 151.832,208.889 151.666,208.889 151.438 C 208.889 151.207,208.562 151.110,208.148 151.218 C 207.741 151.325,207.407 151.242,207.407 151.033 C 207.407 150.825,207.074 150.742,206.667 150.848 C 206.259 150.955,205.926 150.870,205.926 150.660 C 205.926 150.434,205.477 150.367,204.829 150.497 C 204.226 150.618,203.658 150.596,203.567 150.449 C 203.433 150.231,196.481 150.144,196.481 150.360 C 196.481 150.395,195.898 150.479,195.185 150.545 C 193.901 150.665,192.183 151.005,191.111 151.350 C 190.806 151.449,190.508 151.513,190.450 151.492 C 190.392 151.472,190.095 151.704,189.791 152.008 C 189.487 152.312,188.993 152.467,188.693 152.352 C 188.393 152.237,188.148 152.337,188.148 152.575 C 188.148 152.812,187.993 152.911,187.803 152.794 C 187.614 152.676,187.354 152.750,187.226 152.957 C 186.810 153.630,186.099 153.356,185.461 152.277 C 184.857 151.254,184.864 151.206,185.659 150.791 C 186.112 150.555,186.981 150.040,187.593 149.647 C 188.204 149.253,189.563 148.478,190.614 147.924 C 192.716 146.816,192.727 146.742,191.150 144.259 C 190.633 143.444,190.200 142.694,190.188 142.593 C 190.176 142.491,189.917 141.991,189.612 141.481 C 189.307 140.972,188.877 140.222,188.656 139.815 C 188.234 139.038,187.657 138.851,186.574 139.140 M187.262 144.359 C 187.749 145.649,187.544 146.296,186.650 146.296 C 186.268 146.296,185.657 146.609,185.292 146.991 C 184.173 148.165,183.229 148.227,182.460 147.177 C 181.676 146.105,181.853 145.893,184.967 144.167 C 186.842 143.127,186.795 143.123,187.262 144.359 M204.993 154.438 C 205.308 154.700,205.536 155.100,205.500 155.327 C 205.390 156.027,205.987 157.778,206.336 157.778 C 206.518 157.778,206.667 158.090,206.667 158.472 C 206.667 158.854,206.931 159.895,207.254 160.787 C 207.577 161.678,207.874 162.574,207.913 162.778 C 207.952 162.981,208.121 163.368,208.288 163.636 C 208.456 163.904,208.494 164.222,208.374 164.342 C 208.253 164.463,208.300 164.743,208.479 164.966 C 208.657 165.188,208.897 166.164,209.012 167.134 C 209.127 168.104,209.315 169.051,209.431 169.238 C 209.695 169.665,210.049 172.878,210.126 175.550 C 210.177 177.317,210.088 177.599,209.444 177.711 C 209.037 177.782,208.495 178.108,208.241 178.435 C 207.986 178.763,207.778 178.911,207.778 178.766 C 207.778 178.620,207.199 179.027,206.491 179.671 C 205.783 180.315,205.293 180.986,205.402 181.162 C 205.510 181.338,205.444 181.481,205.253 181.481 C 204.941 181.481,204.763 182.045,204.224 184.738 C 204.008 185.816,204.721 188.519,205.221 188.519 C 205.429 188.519,205.496 188.686,205.369 188.892 C 205.242 189.097,205.399 189.364,205.717 189.487 C 206.036 189.609,206.296 189.902,206.296 190.137 C 206.296 190.373,206.963 190.978,207.777 191.481 C 209.098 192.297,209.904 194.444,208.889 194.444 C 208.773 194.444,208.648 194.736,208.612 195.093 C 208.428 196.900,208.262 197.658,207.900 198.333 C 207.682 198.741,207.551 199.366,207.608 199.722 C 207.665 200.079,207.560 200.370,207.375 200.370 C 207.189 200.370,207.037 200.615,207.037 200.913 C 207.037 201.709,204.883 206.669,204.373 207.048 C 203.836 207.447,194.026 207.033,193.697 206.598 C 193.591 206.459,193.091 206.274,192.586 206.187 C 192.080 206.100,191.083 205.803,190.370 205.526 C 189.657 205.250,188.949 205.060,188.796 205.105 C 188.644 205.149,188.519 205.009,188.519 204.793 C 188.519 204.577,188.352 204.504,188.148 204.630 C 187.944 204.756,187.778 204.672,187.778 204.444 C 187.778 204.217,187.625 204.125,187.439 204.240 C 187.253 204.355,187.044 204.316,186.976 204.153 C 186.908 203.990,186.185 203.451,185.370 202.954 C 182.949 201.479,180.196 198.954,178.410 196.573 C 177.374 195.191,174.347 189.630,174.631 189.630 C 174.714 189.630,174.548 188.966,174.262 188.155 C 173.090 184.833,172.819 176.394,173.808 174.024 C 174.094 173.339,174.445 172.153,174.588 171.389 C 174.731 170.625,174.976 170.000,175.131 170.000 C 175.287 170.000,175.821 169.085,176.318 167.967 C 176.815 166.848,177.347 165.932,177.500 165.930 C 177.653 165.928,177.778 165.689,177.778 165.399 C 177.778 164.922,182.605 159.800,184.214 158.569 C 189.301 154.677,202.192 152.114,204.993 154.438 M182.741 163.288 C 176.915 166.454,177.384 174.719,183.519 176.987 C 188.880 178.969,194.074 175.531,194.074 170.000 C 194.074 167.987,193.262 165.556,192.590 165.556 C 192.364 165.556,192.267 165.413,192.374 165.239 C 192.482 165.065,192.131 164.523,191.596 164.035 C 191.060 163.547,190.756 163.398,190.921 163.704 C 191.085 164.009,190.856 163.884,190.410 163.426 C 189.524 162.513,189.607 162.536,186.616 162.406 C 184.953 162.334,184.166 162.513,182.741 163.288 M187.802 165.859 C 190.484 167.023,191.569 170.669,189.819 172.631 C 189.021 173.526,188.855 173.605,186.873 174.041 C 185.606 174.320,182.963 173.190,182.963 172.369 C 182.963 172.084,182.810 171.852,182.623 171.852 C 181.957 171.852,182.375 167.943,183.121 167.192 C 184.454 165.850,186.463 165.278,187.802 165.859 M214.071 181.292 C 214.322 181.596,214.702 181.736,214.914 181.605 C 215.132 181.471,215.190 181.545,215.047 181.776 C 214.908 182.001,215.105 182.351,215.484 182.555 C 216.258 182.968,216.494 184.987,215.940 186.445 C 215.515 187.562,213.758 189.336,213.335 189.075 C 213.159 188.966,212.913 189.040,212.790 189.239 C 212.563 189.607,211.420 189.314,209.739 188.457 C 207.993 187.567,207.271 184.451,208.408 182.715 C 209.542 180.985,213.078 180.096,214.071 181.292 M185.926 186.706 C 185.926 186.888,185.619 187.037,185.245 187.037 C 184.510 187.037,182.127 189.411,182.494 189.778 C 182.616 189.900,182.527 190.000,182.296 190.000 C 182.064 190.000,181.972 190.252,182.090 190.560 C 182.208 190.868,182.098 191.370,181.846 191.674 C 181.176 192.481,182.058 195.334,183.389 196.665 C 183.970 197.246,184.447 197.609,184.450 197.472 C 184.453 197.334,184.592 197.436,184.758 197.698 C 184.924 197.960,185.547 198.257,186.141 198.357 C 186.736 198.458,187.435 198.615,187.695 198.707 C 189.427 199.317,193.005 197.000,193.649 194.851 C 194.673 191.434,192.798 186.854,190.281 186.624 C 187.811 186.398,185.926 186.434,185.926 186.706 M189.618 190.545 C 190.857 191.666,190.516 195.777,189.248 194.993 C 189.051 194.871,188.889 194.920,188.889 195.101 C 188.889 195.356,187.770 195.429,187.130 195.216 C 187.079 195.199,186.933 195.199,186.805 195.216 C 186.300 195.282,185.179 193.094,185.272 192.222 C 185.510 189.988,187.958 189.043,189.618 190.545 M246.667 207.037 L 246.667 210.370 294.259 210.370 L 341.852 210.370 341.852 207.037 L 341.852 203.704 294.259 203.704 L 246.667 203.704 246.667 207.037 M58.148 207.779 L 58.148 211.114 105.833 211.020 L 153.519 210.926 153.626 207.685 L 153.733 204.444 105.940 204.444 L 58.148 204.444 58.148 207.779 M186.794 226.868 C 186.466 227.725,186.780 227.854,189.331 227.911 C 191.453 227.958,191.678 228.039,191.785 228.796 C 191.850 229.255,191.714 229.630,191.482 229.630 C 191.236 229.630,191.155 229.924,191.286 230.339 C 191.410 230.729,191.345 231.151,191.142 231.277 C 190.939 231.403,190.861 231.733,190.967 232.011 C 191.074 232.290,190.999 232.618,190.801 232.741 C 190.602 232.863,190.534 233.323,190.649 233.762 C 190.804 234.357,190.733 234.484,190.371 234.260 C 190.063 234.069,189.975 234.105,190.131 234.356 C 190.265 234.574,190.178 235.225,189.935 235.802 C 189.489 236.866,189.394 237.227,189.123 238.889 C 189.040 239.398,188.537 241.240,188.004 242.982 C 187.472 244.724,187.037 246.488,187.037 246.902 C 187.037 247.316,186.926 247.765,186.791 247.901 C 186.563 248.128,186.476 248.528,186.209 250.556 C 186.155 250.963,185.995 251.384,185.853 251.491 C 185.711 251.598,185.499 252.265,185.381 252.973 C 184.692 257.106,182.854 259.141,179.630 259.341 C 178.221 259.428,177.945 259.573,177.845 260.278 L 177.726 261.111 184.604 261.111 C 188.534 261.111,191.481 260.965,191.481 260.771 C 191.481 260.584,191.579 260.177,191.698 259.867 C 191.874 259.407,191.606 259.316,190.252 259.373 C 189.316 259.413,188.681 259.295,188.800 259.104 C 188.916 258.916,188.729 258.871,188.384 259.003 C 187.184 259.464,186.422 257.045,187.158 255.114 C 187.492 254.236,187.830 253.019,187.908 252.407 C 188.043 251.354,188.203 250.795,188.862 249.074 C 189.018 248.667,189.116 247.958,189.079 247.500 C 189.043 247.042,189.169 246.667,189.361 246.667 C 189.552 246.667,189.604 246.393,189.475 246.058 C 189.346 245.721,189.505 245.158,189.830 244.798 C 190.153 244.441,190.449 243.549,190.487 242.817 C 190.525 242.084,190.662 241.484,190.792 241.483 C 191.087 241.481,191.660 238.931,191.563 238.056 C 191.523 237.699,191.683 237.407,191.918 237.407 C 192.153 237.407,192.249 237.310,192.130 237.192 C 192.012 237.074,192.144 236.428,192.424 235.758 C 192.704 235.087,192.833 234.438,192.710 234.315 C 192.588 234.192,192.670 233.871,192.894 233.602 C 193.118 233.332,193.414 232.370,193.553 231.463 C 193.691 230.557,193.931 229.648,194.085 229.444 C 194.239 229.241,194.447 228.741,194.547 228.333 C 194.647 227.926,194.751 235.093,194.778 244.259 C 194.804 253.426,194.949 261.101,195.098 261.314 C 195.680 262.144,197.037 261.856,197.037 260.903 C 197.037 260.406,197.208 260.000,197.417 260.000 C 197.625 260.000,197.963 259.562,198.167 259.026 C 198.370 258.490,198.882 257.567,199.303 256.975 C 199.725 256.383,200.101 255.686,200.139 255.426 C 200.177 255.165,200.576 254.485,201.025 253.914 C 201.474 253.343,201.751 252.729,201.640 252.549 C 201.529 252.369,201.592 252.222,201.780 252.222 C 201.967 252.222,202.957 250.597,203.979 248.611 C 206.879 242.973,207.575 241.681,207.819 241.481 C 207.944 241.380,208.521 240.296,209.102 239.074 C 209.684 237.852,210.454 236.457,210.815 235.975 C 211.176 235.493,211.391 234.969,211.293 234.810 C 211.195 234.652,211.375 234.422,211.692 234.301 C 212.010 234.179,212.174 233.925,212.057 233.736 C 211.940 233.547,212.064 233.171,212.332 232.900 C 212.857 232.370,213.481 231.079,213.404 230.683 C 213.378 230.550,213.585 230.353,213.863 230.246 C 214.235 230.104,214.360 230.391,214.334 231.322 C 214.314 232.021,214.146 232.593,213.961 232.593 C 213.776 232.593,213.714 232.826,213.824 233.112 C 213.933 233.398,213.910 233.745,213.771 233.884 C 213.632 234.022,213.498 234.289,213.472 234.475 C 213.447 234.662,213.392 234.856,213.351 234.907 C 213.165 235.138,212.927 236.575,212.921 237.507 C 212.917 238.071,212.767 238.441,212.587 238.330 C 212.408 238.219,212.325 238.463,212.404 238.871 C 212.483 239.280,212.388 239.712,212.193 239.833 C 211.999 239.953,211.936 240.206,212.053 240.396 C 212.170 240.586,212.072 240.741,211.834 240.741 C 211.597 240.741,211.490 240.970,211.598 241.251 C 211.706 241.532,211.646 241.910,211.464 242.091 C 211.167 242.389,210.659 244.662,210.629 245.833 C 210.623 246.088,210.478 246.296,210.309 246.296 C 210.139 246.296,210.000 246.963,210.000 247.778 C 210.000 248.593,209.833 249.259,209.630 249.259 C 209.426 249.259,209.259 249.749,209.259 250.349 C 209.259 250.948,209.078 251.550,208.857 251.687 C 208.635 251.823,208.536 252.250,208.637 252.635 C 208.743 253.039,208.665 253.239,208.454 253.108 C 208.253 252.984,208.127 253.192,208.175 253.571 C 208.223 253.949,208.135 254.550,207.981 254.906 C 207.826 255.262,207.676 255.970,207.646 256.480 C 207.617 256.990,207.448 257.407,207.272 257.407 C 207.095 257.407,207.027 257.809,207.121 258.300 C 207.251 258.981,207.160 259.141,206.733 258.977 C 206.426 258.859,206.269 258.916,206.385 259.104 C 206.505 259.298,205.536 259.444,204.131 259.444 C 201.857 259.444,201.658 259.509,201.548 260.278 L 201.430 261.111 209.009 261.111 C 215.747 261.111,216.614 261.042,216.825 260.493 C 217.140 259.670,216.433 259.273,214.630 259.259 C 212.245 259.241,212.130 259.026,212.936 256.091 C 213.324 254.676,213.721 253.000,213.818 252.366 C 213.914 251.732,214.162 250.898,214.368 250.513 C 214.574 250.128,214.801 249.230,214.871 248.517 C 214.942 247.805,215.086 247.139,215.191 247.037 C 215.438 246.798,216.365 243.372,216.443 242.407 C 216.476 242.000,216.649 241.433,216.827 241.147 C 217.006 240.860,217.193 240.251,217.243 239.793 C 217.293 239.334,217.631 237.985,217.993 236.794 C 218.354 235.604,218.674 234.546,218.703 234.444 C 218.732 234.343,218.947 233.593,219.181 232.778 C 219.555 231.478,219.887 229.973,219.972 229.193 C 220.066 228.339,221.331 227.778,223.162 227.778 C 224.780 227.778,225.234 227.637,225.556 227.037 C 225.944 226.311,225.837 226.296,220.039 226.296 C 213.753 226.296,212.963 226.506,212.963 228.175 C 212.963 228.567,212.832 228.889,212.672 228.889 C 212.243 228.889,211.091 230.968,211.368 231.244 C 211.498 231.375,211.401 231.481,211.151 231.481 C 210.901 231.481,210.800 231.648,210.926 231.852 C 211.052 232.056,210.993 232.222,210.796 232.222 C 210.432 232.222,208.785 235.312,208.895 235.787 C 208.928 235.929,208.703 236.185,208.395 236.358 C 208.088 236.530,207.726 237.170,207.592 237.780 C 207.458 238.390,207.208 238.889,207.036 238.889 C 206.865 238.889,206.532 239.472,206.296 240.185 C 206.061 240.898,205.749 241.481,205.604 241.481 C 205.459 241.481,205.075 242.065,204.752 242.778 C 204.429 243.491,204.323 244.074,204.516 244.074 C 204.709 244.074,204.606 244.336,204.286 244.656 C 203.966 244.976,203.704 245.353,203.704 245.493 C 203.704 245.634,203.280 246.205,202.763 246.763 C 202.245 247.321,201.938 247.778,202.079 247.778 C 202.221 247.778,202.020 248.140,201.631 248.582 C 201.160 249.120,201.110 249.295,201.481 249.110 C 201.821 248.941,201.788 249.038,201.395 249.361 C 201.042 249.650,200.694 250.279,200.621 250.757 C 200.076 254.324,199.828 250.204,199.917 239.074 L 200.019 226.296 193.516 226.296 C 187.997 226.296,186.981 226.383,186.794 226.868 M215.370 228.704 C 215.370 229.350,215.168 229.630,214.700 229.630 C 214.040 229.630,214.089 229.312,214.918 228.241 C 215.383 227.640,215.370 227.627,215.370 228.704 " stroke="none" fill="#f4f4f4" fill-rule="evenodd"/><path id="path1" d="M177.726 144.065 L 176.852 144.797 177.867 144.343 C 178.426 144.093,178.884 143.764,178.886 143.611 C 178.890 143.186,178.677 143.270,177.726 144.065 M184.237 147.199 C 183.526 147.725,183.526 147.730,184.239 147.629 C 184.636 147.574,185.024 147.334,185.103 147.097 C 185.292 146.533,185.108 146.554,184.237 147.199 M198.981 150.265 C 199.542 150.350,200.458 150.350,201.019 150.265 C 201.579 150.180,201.120 150.111,200.000 150.111 C 198.880 150.111,198.421 150.180,198.981 150.265 M179.368 158.045 C 177.538 159.833,176.094 161.296,176.160 161.296 C 176.225 161.296,177.416 160.213,178.806 158.889 C 180.196 157.565,181.730 156.193,182.216 155.839 C 182.701 155.486,183.008 155.106,182.897 154.995 C 182.786 154.884,181.198 156.257,179.368 158.045 M221.296 158.889 C 222.506 160.111,223.579 161.111,223.681 161.111 C 223.782 161.111,222.876 160.111,221.667 158.889 C 220.457 157.667,219.384 156.667,219.282 156.667 C 219.181 156.667,220.087 157.667,221.296 158.889 M185.556 161.994 C 185.556 162.323,187.054 162.494,187.244 162.187 C 187.358 162.003,187.025 161.852,186.503 161.852 C 185.982 161.852,185.556 161.916,185.556 161.994 M181.265 163.924 C 180.314 164.797,180.212 164.957,180.969 164.387 C 181.604 163.909,182.437 163.320,182.821 163.077 C 183.205 162.835,183.338 162.626,183.117 162.614 C 182.897 162.602,182.063 163.192,181.265 163.924 M173.029 165.888 C 172.585 166.677,172.224 167.467,172.227 167.643 C 172.229 167.819,172.650 167.231,173.161 166.336 C 173.673 165.441,174.034 164.651,173.963 164.581 C 173.893 164.510,173.472 165.099,173.029 165.888 M189.501 172.444 C 188.545 173.756,188.888 173.835,189.936 172.544 C 190.409 171.960,190.659 171.487,190.491 171.493 C 190.323 171.500,189.877 171.928,189.501 172.444 M230.086 177.778 C 230.086 178.491,230.162 178.782,230.255 178.426 C 230.348 178.069,230.348 177.486,230.255 177.130 C 230.162 176.773,230.086 177.065,230.086 177.778 M206.729 179.167 C 205.964 179.931,205.856 180.094,206.490 179.531 C 207.123 178.967,207.735 178.599,207.849 178.713 C 207.963 178.827,208.155 178.664,208.276 178.349 C 208.617 177.460,208.236 177.662,206.729 179.167 M229.930 183.148 C 229.846 183.861,229.912 184.444,230.074 184.444 C 230.237 184.444,230.370 183.861,230.370 183.148 C 230.370 182.435,230.305 181.852,230.226 181.852 C 230.146 181.852,230.013 182.435,229.930 183.148 M187.068 186.059 C 187.153 186.132,187.722 186.304,188.333 186.441 C 189.145 186.622,189.295 186.588,188.889 186.313 C 188.389 185.975,186.696 185.738,187.068 186.059 M183.597 187.829 L 182.037 189.362 183.626 188.002 C 184.500 187.254,185.375 186.740,185.571 186.861 C 185.766 186.982,185.926 186.904,185.926 186.689 C 185.926 185.928,185.140 186.313,183.597 187.829 M211.111 189.031 C 211.111 189.360,212.610 189.532,212.799 189.224 C 212.913 189.040,212.580 188.889,212.059 188.889 C 211.538 188.889,211.111 188.953,211.111 189.031 M178.430 196.481 C 178.854 197.093,180.169 198.509,181.351 199.630 C 183.398 201.570,183.378 201.535,180.937 198.889 C 177.515 195.180,177.547 195.211,178.430 196.481 M199.352 207.292 C 199.708 207.386,200.292 207.386,200.648 207.292 C 201.005 207.199,200.713 207.123,200.000 207.123 C 199.287 207.123,198.995 207.199,199.352 207.292 M225.370 227.407 C 225.244 227.611,224.260 227.778,223.184 227.778 C 221.778 227.778,221.069 227.961,220.669 228.426 C 219.646 229.617,219.496 230.199,220.477 229.167 C 221.303 228.299,221.745 228.148,223.461 228.148 C 224.911 228.148,225.536 227.992,225.689 227.593 C 225.930 226.966,225.719 226.843,225.370 227.407 M188.246 228.044 C 188.809 228.129,189.642 228.126,190.098 228.038 C 190.553 227.951,190.093 227.881,189.074 227.884 C 188.056 227.886,187.683 227.958,188.246 228.044 M191.243 228.706 C 191.272 229.214,191.421 229.629,191.574 229.629 C 191.966 229.630,191.921 228.235,191.521 227.987 C 191.339 227.875,191.214 228.198,191.243 228.706 M190.129 233.877 C 190.244 234.176,190.199 234.507,190.028 234.612 C 189.715 234.806,189.241 236.667,189.505 236.667 C 189.679 236.667,190.386 234.879,190.567 233.981 C 190.639 233.625,190.523 233.333,190.309 233.333 C 190.096 233.333,190.015 233.578,190.129 233.877 M188.205 240.798 C 187.963 241.846,187.833 242.771,187.915 242.853 C 187.997 242.936,188.269 242.152,188.519 241.111 C 188.768 240.071,188.899 239.146,188.809 239.056 C 188.719 238.966,188.447 239.750,188.205 240.798 M187.249 244.286 C 187.112 244.828,187.072 245.344,187.160 245.431 C 187.247 245.519,187.430 245.146,187.566 244.603 C 187.702 244.060,187.742 243.545,187.655 243.458 C 187.568 243.370,187.385 243.743,187.249 244.286 M203.009 245.553 C 202.535 246.396,202.210 247.148,202.286 247.224 C 202.535 247.474,204.150 244.858,204.009 244.434 C 203.933 244.206,203.483 244.709,203.009 245.553 M186.717 246.359 C 186.689 246.698,186.559 247.282,186.427 247.655 C 186.242 248.179,186.291 248.237,186.644 247.913 C 186.894 247.682,187.025 247.099,186.934 246.617 C 186.842 246.135,186.745 246.019,186.717 246.359 M186.177 248.796 C 185.920 249.232,185.447 251.689,185.659 251.481 C 185.902 251.244,186.651 248.519,186.473 248.519 C 186.400 248.519,186.266 248.644,186.177 248.796 " stroke="none" fill="#f4fcf4" fill-rule="evenodd"/><path id="path2" d="" stroke="none" fill="#f8f4f4" fill-rule="evenodd"/><path id="path3" d="" stroke="none" fill="#f8f4f4" fill-rule="evenodd"/><path id="path4" d="" stroke="none" fill="#f8f4f4" fill-rule="evenodd"/></g></svg>