<?xml version="1.0" encoding="UTF-8"?>
<svg id="svg" width="173.7" height="94.79" version="1.1" viewBox="58.15 139.01 173.7 94.79" xmlns="http://www.w3.org/2000/svg">
 <g id="svgg" transform="translate(-110.2)">
  <g transform="translate(2.354 10.994)">
   <path d="m186.57 139.14c-0.356 0.096-0.648 0.328-0.648 0.517s-0.238 0.343-0.529 0.343-0.75 0.208-1.019 0.463-1.114 0.752-1.878 1.105-1.389 0.812-1.389 1.019-0.311 0.376-0.69 0.376c-1.198 0-3.14 1.981-2.847 2.904 0.139 0.44 0.409 0.8 0.599 0.8s0.346 0.25 0.346 0.555c0 0.306 0.176 0.556 0.392 0.556 0.215 0 0.298 0.152 0.182 0.339-0.115 0.186 0.217 0.846 0.739 1.465 0.521 0.619 0.961 1.259 0.978 1.42 0.067 0.642 0.808 1.961 1.101 1.961 0.171 0 0.276 0.125 0.233 0.278-0.044 0.153 0.137 0.668 0.402 1.146 0.428 0.773 0.388 0.936-0.359 1.482-1.623 1.185-7.372 7.144-7.372 7.641 0 0.276-0.125 0.558-0.278 0.626-0.618 0.274-3.044 5.473-3.602 7.716-0.075 0.305-0.163 0.555-0.194 0.555-0.618 0-0.897 14.181-0.293 14.909 0.219 0.264 0.301 0.577 0.181 0.697-0.32 0.32 1.379 4.788 2.092 5.501 0.337 0.337 0.612 0.934 0.612 1.327s0.167 0.715 0.371 0.715c0.203 0 0.333 0.125 0.288 0.277-0.074 0.248 0.703 1.586 1.746 3.01 1.201 1.639 6.239 6.342 6.794 6.342 0.187 0 0.553 0.256 0.812 0.569 1.043 1.256 7.155 3.871 10.545 4.512 2.582 0.488 11.328 0.337 13.148-0.227 3.855-1.194 4.712-1.511 6.305-2.328 4.17-2.139 7.968-5.353 10.863-9.192 0.845-1.121 1.744-2.258 1.999-2.527 0.254-0.269 0.463-0.662 0.463-0.872 0-0.211 0.402-1.185 0.895-2.165 0.492-0.98 0.798-1.879 0.679-1.998s-0.029-0.216 0.199-0.216c0.39 0 1.074-2.402 0.881-3.095-0.048-0.174 0.091-0.532 0.31-0.796 0.218-0.263 0.371-1.037 0.338-1.72-0.032-0.683 0.068-2.366 0.223-3.741 0.159-1.421 0.139-2.5-0.048-2.5-0.181 0-0.271-0.837-0.2-1.86 0.071-1.024 4e-3 -2.149-0.149-2.501-0.412-0.949-0.589-1.674-0.586-2.391 2e-3 -0.353-0.153-0.737-0.344-0.855-0.19-0.118-0.346-0.511-0.346-0.874 0-2.092-3.944-8.168-7.475-11.519-3.332-3.162-3.538-3.333-3.991-3.333-0.213 0-0.386-0.167-0.386-0.371s-0.236-0.37-0.525-0.37-0.583-0.176-0.655-0.391c-0.071-0.215-0.377-0.433-0.679-0.485s-1.132-0.459-1.845-0.905c-0.713-0.445-1.505-0.83-1.759-0.857-0.469-0.048-0.976-0.158-1.482-0.323-0.153-0.049-0.403-0.07-0.555-0.046-0.153 0.024-0.278-0.142-0.278-0.37 0-0.231-0.327-0.328-0.741-0.22-0.407 0.107-0.741 0.024-0.741-0.185 0-0.208-0.333-0.291-0.74-0.185-0.408 0.107-0.741 0.022-0.741-0.188 0-0.226-0.449-0.293-1.097-0.163-0.603 0.121-1.171 0.099-1.262-0.048-0.134-0.218-7.086-0.305-7.086-0.089 0 0.035-0.583 0.119-1.296 0.185-1.284 0.12-3.002 0.46-4.074 0.805-0.305 0.099-0.603 0.163-0.661 0.142-0.058-0.02-0.355 0.212-0.659 0.516s-0.798 0.459-1.098 0.344-0.545-0.015-0.545 0.223c0 0.237-0.155 0.336-0.345 0.219-0.189-0.118-0.449-0.044-0.577 0.163-0.416 0.673-1.127 0.399-1.765-0.68-0.604-1.023-0.597-1.071 0.198-1.486 0.453-0.236 1.322-0.751 1.934-1.144 0.611-0.394 1.97-1.169 3.021-1.723 2.102-1.108 2.113-1.182 0.536-3.665-0.517-0.815-0.95-1.565-0.962-1.666-0.012-0.102-0.271-0.602-0.576-1.112-0.305-0.509-0.735-1.259-0.956-1.666-0.422-0.777-0.999-0.964-2.082-0.675m0.688 5.219c0.487 1.29 0.282 1.937-0.612 1.937-0.382 0-0.993 0.313-1.358 0.695-1.119 1.174-2.063 1.236-2.832 0.186-0.784-1.072-0.607-1.284 2.507-3.01 1.875-1.04 1.828-1.044 2.295 0.192m17.731 10.079c0.315 0.262 0.543 0.662 0.507 0.889-0.11 0.7 0.487 2.451 0.836 2.451 0.182 0 0.331 0.312 0.331 0.694s0.264 1.423 0.587 2.315c0.323 0.891 0.62 1.787 0.659 1.991 0.039 0.203 0.208 0.59 0.375 0.858 0.168 0.268 0.206 0.586 0.086 0.706-0.121 0.121-0.074 0.401 0.105 0.624 0.178 0.222 0.418 1.198 0.533 2.168s0.303 1.917 0.419 2.104c0.264 0.427 0.618 3.64 0.695 6.312 0.051 1.767-0.038 2.049-0.682 2.161-0.407 0.071-0.949 0.397-1.203 0.724-0.255 0.328-0.463 0.476-0.463 0.331 0-0.146-0.579 0.261-1.287 0.905s-1.198 1.315-1.089 1.491c0.108 0.176 0.042 0.319-0.149 0.319-0.312 0-0.49 0.564-1.029 3.257-0.216 1.078 0.497 3.781 0.997 3.781 0.208 0 0.275 0.167 0.148 0.373-0.127 0.205 0.03 0.472 0.348 0.595 0.319 0.122 0.579 0.415 0.579 0.65 0 0.236 0.667 0.841 1.481 1.344 1.321 0.816 2.127 2.963 1.112 2.963-0.116 0-0.241 0.292-0.277 0.649-0.184 1.807-0.35 2.565-0.712 3.24-0.218 0.408-0.349 1.033-0.292 1.389 0.057 0.357-0.048 0.648-0.233 0.648-0.186 0-0.338 0.245-0.338 0.543 0 0.796-2.154 5.756-2.664 6.135-0.537 0.399-10.347-0.015-10.676-0.45-0.106-0.139-0.606-0.324-1.111-0.411-0.506-0.087-1.503-0.384-2.216-0.661-0.713-0.276-1.421-0.466-1.574-0.421-0.152 0.044-0.277-0.096-0.277-0.312s-0.167-0.289-0.371-0.163-0.37 0.042-0.37-0.186c0-0.227-0.153-0.319-0.339-0.204s-0.395 0.076-0.463-0.087-0.791-0.702-1.606-1.199c-2.421-1.475-5.174-4-6.96-6.381-1.036-1.382-4.063-6.943-3.779-6.943 0.083 0-0.083-0.664-0.369-1.475-1.172-3.322-1.443-11.761-0.454-14.131 0.286-0.685 0.637-1.871 0.78-2.635s0.388-1.389 0.543-1.389c0.156 0 0.69-0.915 1.187-2.033 0.497-1.119 1.029-2.035 1.182-2.037s0.278-0.241 0.278-0.531c0-0.477 4.827-5.599 6.436-6.83 5.087-3.892 17.978-6.455 20.779-4.131m-22.252 8.85c-5.826 3.166-5.357 11.431 0.778 13.699 5.361 1.982 10.555-1.456 10.555-6.987 0-2.013-0.812-4.444-1.484-4.444-0.226 0-0.323-0.143-0.216-0.317 0.108-0.174-0.243-0.716-0.778-1.204-0.536-0.488-0.84-0.637-0.675-0.331 0.164 0.305-0.065 0.18-0.511-0.278-0.886-0.913-0.803-0.89-3.794-1.02-1.663-0.072-2.45 0.107-3.875 0.882m5.061 2.571c2.682 1.164 3.767 4.81 2.017 6.772-0.798 0.895-0.964 0.974-2.946 1.41-1.267 0.279-3.91-0.851-3.91-1.672 0-0.285-0.153-0.517-0.34-0.517-0.666 0-0.248-3.909 0.498-4.66 1.333-1.342 3.342-1.914 4.681-1.333m26.269 15.433c0.251 0.304 0.631 0.444 0.843 0.313 0.218-0.134 0.276-0.06 0.133 0.171-0.139 0.225 0.058 0.575 0.437 0.779 0.774 0.413 1.01 2.432 0.456 3.89-0.425 1.117-2.182 2.891-2.605 2.63-0.176-0.109-0.422-0.035-0.545 0.164-0.227 0.368-1.37 0.075-3.051-0.782-1.746-0.89-2.468-4.006-1.331-5.742 1.134-1.73 4.67-2.619 5.663-1.423m-28.145 5.414c0 0.182-0.307 0.331-0.681 0.331-0.735 0-3.118 2.374-2.751 2.741 0.122 0.122 0.033 0.222-0.198 0.222-0.232 0-0.324 0.252-0.206 0.56s8e-3 0.81-0.244 1.114c-0.67 0.807 0.212 3.66 1.543 4.991 0.581 0.581 1.058 0.944 1.061 0.807 3e-3 -0.138 0.142-0.036 0.308 0.226s0.789 0.559 1.383 0.659c0.595 0.101 1.294 0.258 1.554 0.35 1.732 0.61 5.31-1.707 5.954-3.856 1.024-3.417-0.851-7.997-3.368-8.227-2.47-0.226-4.355-0.19-4.355 0.082m3.692 3.839c1.239 1.121 0.898 5.232-0.37 4.448-0.197-0.122-0.359-0.073-0.359 0.108 0 0.255-1.119 0.328-1.759 0.115-0.051-0.017-0.197-0.017-0.325 0-0.505 0.066-1.626-2.122-1.533-2.994 0.238-2.234 2.686-3.179 4.346-1.677m45.56-17.036 0.23446 0.0505 47.826 0.23446 47.124-0.23446v-3.3835h-95.185v3.333m70.104 4.9275c-0.21536 0.60657-9e-3 0.69787 1.6657 0.73821 1.3932 0.0333 1.541 0.0906 1.6112 0.62639 0.0427 0.32487-0.0466 0.59028-0.19894 0.59028-0.16151 0-0.21469 0.20809-0.12868 0.50182 0.0814 0.27603 0.0387 0.57471-0.0946 0.66389-0.13328 0.0892-0.18449 0.32275-0.11489 0.51951 0.0703 0.19747 0.021 0.42963-0.10899 0.51668-0.13066 0.0864-0.17531 0.41193-0.0998 0.72264 0.10177 0.42113 0.0551 0.51102-0.18253 0.35248-0.20222-0.13519-0.25999-0.10971-0.15757 0.0679 0.088 0.1543 0.0309 0.61506-0.12869 1.0234-0.29282 0.75308-0.3552 1.0086-0.53312 2.1849-0.0545 0.36026-0.38475 1.664-0.7347 2.8969-0.34929 1.233-0.63489 2.4815-0.63489 2.7745s-0.0729 0.61082-0.16151 0.70707c-0.1497 0.16067-0.20682 0.44378-0.38212 1.8792-0.0355 0.28806-0.14051 0.58604-0.23374 0.66177-0.0932 0.0757-0.23242 0.54782-0.3099 1.0489-0.45237 2.9252-1.6591 4.3656-3.7759 4.5071-0.92509 0.0616-1.1063 0.1642-1.172 0.66319l-0.0781 0.58958h4.5158c2.5803 0 4.5152-0.10334 4.5152-0.24065 0-0.13235 0.0643-0.42042 0.14247-0.63983 0.11556-0.32558-0.0604-0.38998-0.94939-0.34964-0.61454 0.0283-1.0314-0.0552-0.95332-0.19039 0.0762-0.13307-0.0466-0.16492-0.27313-0.0715-0.78788 0.32629-1.2882-1.3858-0.80495-2.7526 0.2193-0.62143 0.44121-1.4828 0.49242-1.916 0.0886-0.74529 0.19369-1.1409 0.62636-2.359 0.10243-0.28807 0.16677-0.78988 0.14248-1.114-0.0236-0.32417 0.0591-0.58958 0.18515-0.58958 0.1254 0 0.15954-0.19394 0.0749-0.43104-0.0847-0.23852 0.0197-0.637 0.23308-0.8918 0.21206-0.25268 0.40641-0.88402 0.43136-1.4021 0.0249-0.5188 0.11489-0.94347 0.20025-0.94418 0.19368-1e-3 0.56989-1.8062 0.50621-2.4256-0.0263-0.25267 0.0788-0.45934 0.23308-0.45934 0.15429 0 0.21732-0.0687 0.13919-0.15218-0.0775-0.0835 9e-3 -0.54074 0.19302-1.015 0.18384-0.47492 0.26854-0.93427 0.18778-1.0213-0.0801-0.0871-0.0263-0.31426 0.12081-0.50465 0.14707-0.1911 0.34141-0.87198 0.43267-1.5139 0.0906-0.64125 0.24818-1.2846 0.34929-1.429 0.10111-0.14368 0.23768-0.49757 0.30333-0.78635 0.0657-0.28806 0.13394 4.7846 0.15167 11.272 0.0171 6.4882 0.11227 11.92 0.2101 12.071 0.38212 0.58745 1.2731 0.38361 1.2731-0.2909 0-0.35177 0.11227-0.63912 0.24949-0.63912 0.13657 0 0.35849-0.31001 0.49243-0.68938 0.13328-0.37937 0.46944-1.0326 0.74585-1.4516 0.27707-0.41901 0.52394-0.91233 0.54888-1.0964 0.0249-0.18473 0.28692-0.66602 0.58172-1.0702 0.29479-0.40415 0.47666-0.83872 0.40378-0.96612-0.0729-0.1274-0.0315-0.23144 0.0919-0.23144 0.12278 0 0.77277-1.1502 1.4438-2.5558 1.904-3.9905 2.361-4.9049 2.5212-5.0465 0.0821-0.0715 0.46091-0.83872 0.84237-1.7036 0.38212-0.8649 0.88767-1.8522 1.1247-2.1934s0.37818-0.71203 0.31384-0.82456c-0.0644-0.11183 0.0538-0.27462 0.26197-0.36026 0.20878-0.0864 0.31646-0.26613 0.23964-0.3999-0.0768-0.13377 5e-3 -0.39989 0.18055-0.5917 0.3447-0.37512 0.75439-1.2889 0.70384-1.5692-0.0171-0.0941 0.11884-0.23356 0.30136-0.30929 0.24424-0.10051 0.32631 0.10262 0.30924 0.76156-0.0131 0.49474-0.12343 0.89959-0.2449 0.89959-0.12146 0-0.16217 0.16491-0.0899 0.36734 0.0716 0.20242 0.0565 0.44802-0.0348 0.5464-0.0913 0.0977-0.17924 0.28665-0.19632 0.4183-0.0164 0.13235-0.0525 0.26966-0.0794 0.30576-0.12212 0.1635-0.27838 1.1806-0.28232 1.8402-3e-3 0.39919-0.10111 0.66107-0.21929 0.58251-0.11753-0.0786-0.17202 0.0941-0.12015 0.3829 0.0519 0.28949-0.0105 0.59525-0.13854 0.68089-0.12737 0.0849-0.16873 0.264-0.0919 0.39848 0.0768 0.13447 0.0125 0.24418-0.14378 0.24418-0.15561 0-0.22586 0.16208-0.15495 0.36097 0.0709 0.19888 0.0315 0.46642-0.088 0.59453-0.195 0.21092-0.52853 1.8197-0.54823 2.6485-4e-3 0.18048-0.0991 0.3277-0.2101 0.3277-0.11161 0-0.20288 0.47209-0.20288 1.0489s-0.10964 1.0482-0.24292 1.0482c-0.13394 0-0.24359 0.34681-0.24359 0.77148 0 0.42396-0.11884 0.85004-0.26394 0.947-0.14575 0.0963-0.21075 0.39848-0.14444 0.67098 0.0696 0.28594 0.0184 0.4275-0.12015 0.33478-0.13197-0.0878-0.21469 0.0594-0.18318 0.3277 0.0315 0.26754-0.0263 0.69291-0.12737 0.94488-0.10177 0.25197-0.20025 0.75308-0.21995 1.114-0.019 0.36096-0.13 0.65611-0.24555 0.65611-0.11622 0-0.16086 0.28452-0.0992 0.63204 0.0854 0.482 0.0256 0.59524-0.25474 0.47917-0.20157-0.0835-0.30465-0.0432-0.22848 0.0899 0.0788 0.13731-0.55742 0.24064-1.4799 0.24064-1.493 0-1.6237 0.046-1.6959 0.59029l-0.0775 0.58958h4.9761c4.4239 0 4.9932-0.0488 5.1317-0.43741 0.20682-0.5825-0.25737-0.86349-1.4412-0.8734-1.5659-0.0127-1.6414-0.16491-1.1122-2.2422 0.25474-1.0015 0.5154-2.1877 0.57908-2.6365 0.063-0.44874 0.22586-1.039 0.36111-1.3115 0.13526-0.27249 0.28429-0.90808 0.33025-1.4127 0.0466-0.50394 0.14116-0.97532 0.2101-1.0475 0.16217-0.16916 0.77081-2.594 0.82202-3.277 0.0217-0.28807 0.13525-0.68938 0.25212-0.8918 0.11752-0.20313 0.2403-0.63417 0.27313-0.95833 0.0328-0.32487 0.25474-1.2797 0.49242-2.1226 0.23702-0.84226 0.44712-1.5911 0.46616-1.6633 0.019-0.0715 0.1602-0.60232 0.31383-1.1792 0.24556-0.92011 0.46353-1.9853 0.51934-2.5374 0.0617-0.60444 0.89227-1.0015 2.0944-1.0015 1.0623 0 1.3604-0.0998 1.5718-0.52447 0.25475-0.51384 0.18449-0.52446-3.6222-0.52446-4.1271 0-4.6458 0.14863-4.6458 1.3299 0 0.27744-0.086 0.50535-0.19106 0.50535-0.28167 0-1.038 1.4715-0.85616 1.6668 0.0854 0.0927 0.0217 0.16774-0.14247 0.16774-0.16414 0-0.23046 0.1182-0.14773 0.26259 0.0827 0.14438 0.044 0.26188-0.0854 0.26188-0.23899 0-1.3204 2.187-1.2481 2.5232 0.0217 0.1005-0.12606 0.28169-0.32828 0.40414-0.20156 0.12174-0.43924 0.57471-0.52722 1.0065-0.088 0.43174-0.25211 0.78492-0.36504 0.78492-0.11228 0-0.33091 0.41264-0.48586 0.91729-0.15429 0.50464-0.35914 0.91728-0.45434 0.91728s-0.34732 0.41334-0.55939 0.91799c-0.21207 0.50464-0.28166 0.91728-0.15495 0.91728 0.12672 0 0.0591 0.18543-0.15101 0.41192-0.2101 0.22649-0.38211 0.49332-0.38211 0.59241 0 0.0998-0.27839 0.50394-0.61783 0.89888-0.3401 0.39494-0.54166 0.7184-0.44909 0.7184 0.0932 0-0.0387 0.25621-0.29414 0.56905-0.30924 0.38079-0.34206 0.50465-0.0985 0.37371 0.22323-0.11962 0.20156-0.051-0.0565 0.17765-0.23177 0.20455-0.46025 0.64974-0.50818 0.98806-0.35783 2.5246-0.52066-0.3914-0.46222-8.269l0.067-9.044h-4.2696c-3.6236 0-4.2906 0.0616-4.4134 0.40485m18.762 1.2995c0 0.45723-0.13263 0.6554-0.4399 0.6554-0.43333 0-0.40116-0.22507 0.14313-0.9831 0.3053-0.42538 0.29677-0.43458 0.29677 0.3277" fill="#f4f4f4" fill-rule="evenodd"/>
  </g>
  <g fill="#f8f4f4" fill-rule="evenodd"></g>
 </g>
</svg>
